# xmcd CD database file
#
# Track frame offsets:
#	150
#	21137
#	40687
#	61675
#
# Disc length: 1081 seconds
#
# Revision: 0
# Processed by: cddbd v1.5PL3 Copyright (c) Steve Scherf et al.
# Submitted via: CDex 1.50beta10
#
DISCID=24043704
DTITLE=NEWS - NEWSニッポン （EAST盤）
DYEAR=2003
DGENRE=JPop
TTITLE0=NEWSニッポン
TTITLE1=ありがとう・今
TTITLE2=NEWSニッポン （オリジナルカラオケ）
TTITLE3=ありがとう・今 （オリジナルカラオケ）
EXTD=YEAR: 2003
EXTT0=
EXTT1=
EXTT2=
EXTT3=
PLAYORDER=
